<svg width="169" height="41" viewBox="0 0 169 41" fill="none" xmlns="http://www.w3.org/2000/svg">
<g id="CryptoFix">
<path d="M11.7885 9.49791C5.32386 9.49791 0 13.7717 0 22.0436C0 30.1087 5.151 34.2446 11.5465 34.2446C17.5272 34.2446 21.9177 31.315 22.5054 25.5936L22.54 25.2489H16.3173L16.2481 25.5936C15.7296 28.213 14.1739 29.6951 11.754 29.6951C8.98833 29.6951 6.49925 27.6616 6.49925 21.6645C6.49925 16.529 8.74633 14.0474 11.7194 14.0474C14.243 14.0474 15.7987 15.2538 16.3173 17.8043L16.3864 18.1489H22.6091L22.5745 17.8043C22.0905 13.1169 18.5989 9.49791 11.7885 9.49791Z" fill="white"/>
<path d="M36.554 14.8746C35.3786 14.8746 33.9266 15.3916 32.9241 16.4945L31.6104 19.0795V15.3572H25.3877V33.7621H31.6104V27.0067C31.6104 21.4577 33.3043 19.7344 37.9714 20.0446V14.978C37.5219 14.9091 37.1417 14.8746 36.554 14.8746Z" fill="white"/>
<path d="M59.3332 15.3572H52.5228L48.7546 28.8334L44.9519 15.3572H38.0378L45.6779 34.5893L45.4359 35.1063C44.8482 36.416 43.8456 36.8985 42.3937 36.8985C41.7714 36.8985 41.2183 36.8985 40.6997 36.8296V40.8277C41.5986 40.9655 42.3245 41 43.3271 41C47.7175 41 49.7226 39.5869 52.0388 33.7621L59.3332 15.3572Z" fill="white"/>
<path d="M73.2443 14.8746C71.3775 14.8746 69.5799 15.2538 68.5427 16.012L67.1599 18.0455V15.3572H60.9372V40.5175H67.1599V31.3839L68.3699 33.3485C69.3033 33.9 71.101 34.2446 72.6221 34.2446C77.3582 34.2446 81.3684 30.6946 81.3684 24.146C81.3684 18.7004 78.257 14.8746 73.2443 14.8746ZM70.9281 30.0397C69.0613 30.0397 67.1599 28.799 67.1599 25.1111V24.3184C67.1599 20.4582 68.8193 19.0795 71.101 19.0795C73.2789 19.0795 75.0074 21.0096 75.0074 24.4562C75.0074 28.213 73.348 30.0397 70.9281 30.0397Z" fill="white"/>
<path d="M91.5302 19.3552H95.6095V15.495H91.5302V10.7387H85.3075V15.495H82.369V19.3552H85.3075V27.0412C85.3075 28.0752 85.3075 28.9368 85.3767 30.0053C85.5841 32.8315 86.9669 34.2446 91.5648 34.2446C92.8785 34.2446 94.0193 34.1412 95.2293 33.9344V30.0742C92.2908 30.2121 91.7031 29.7985 91.5648 27.9373C91.5302 27.4548 91.5302 26.7655 91.5302 26.1451V19.3552Z" fill="white"/>
<path d="M106.587 14.8746C100.537 14.8746 96.665 18.6314 96.665 24.5596C96.665 30.4533 100.537 34.2446 106.587 34.2446C112.637 34.2446 116.508 30.4533 116.508 24.5596C116.508 18.6314 112.637 14.8746 106.587 14.8746ZM106.587 30.0397C104.374 30.0397 103.026 28.213 103.026 24.5596C103.026 20.8717 104.374 19.0795 106.587 19.0795C108.799 19.0795 110.148 20.8717 110.148 24.5596C110.148 28.213 108.799 30.0397 106.587 30.0397Z" fill="white"/>
<path d="M126.329 14.8057H138.048V9.98044H120.106V33.7621H126.329V24.2494H137.011V19.4242H126.329V14.8057Z" fill="white"/>
<path d="M143.588 7.878C141.652 7.878 140.373 9.04986 140.373 10.911C140.373 12.7722 141.652 13.944 143.588 13.944C145.524 13.944 146.803 12.7722 146.803 10.911C146.803 9.04986 145.524 7.878 143.588 7.878ZM146.699 33.7621V15.3572H140.476V33.7621H146.699Z" fill="white"/>
<path d="M162.639 24.4907L168.931 15.3572H161.775L158.94 20.665L156.036 15.3572H148.776L154.964 24.4218L148.534 33.7621H155.69L158.802 28.213L161.74 33.7621H169L162.639 24.4907Z" fill="white"/>
<path d="M143.588 0C141.652 0 140.373 1.17185 140.373 3.03302C140.373 4.8942 141.652 6.06604 143.588 6.06604C145.524 6.06604 146.803 4.8942 146.803 3.03302C146.803 1.17185 145.524 0 143.588 0Z" fill="white"/>
</g>
</svg>
