<svg width="42" height="42" viewBox="0 0 42 42" fill="none" xmlns="http://www.w3.org/2000/svg">
<path d="M24.9375 36.75H17.0625C16.3665 36.7493 15.6992 36.4725 15.2071 35.9804C14.715 35.4883 14.4382 34.821 14.4375 34.125V27.5625H7.875C7.17902 27.5618 6.51174 27.285 6.01961 26.7929C5.52748 26.3008 5.25069 25.6335 5.25 24.9375V17.0625C5.25069 16.3665 5.52748 15.6992 6.01961 15.2071C6.51174 14.715 7.17902 14.4382 7.875 14.4375H14.4375V7.875C14.4382 7.17902 14.715 6.51174 15.2071 6.01961C15.6992 5.52748 16.3665 5.25069 17.0625 5.25H24.9375C25.6335 5.25069 26.3008 5.52748 26.7929 6.01961C27.285 6.51174 27.5618 7.17902 27.5625 7.875V14.4375H34.125C34.821 14.4382 35.4883 14.715 35.9804 15.2071C36.4725 15.6992 36.7493 16.3665 36.75 17.0625V24.9375C36.749 25.6334 36.4721 26.3004 35.98 26.7925C35.4879 27.2846 34.8209 27.5615 34.125 27.5625H27.5625V34.125C27.5615 34.8209 27.2846 35.4879 26.7925 35.98C26.3004 36.4721 25.6334 36.749 24.9375 36.75ZM7.875 17.0625V24.9375H17.0625V34.125H24.9375V24.9375H34.125V17.0625H24.9375V7.875H17.0625V17.0625H7.875Z" fill="black"/>
</svg>
