<svg width="32" height="32" viewBox="0 0 32 32" fill="none" xmlns="http://www.w3.org/2000/svg">
<path d="M16 7.34672C16.7467 7.34672 17.4933 7.81339 18.0533 8.76005L25.9333 21.8934C27.08 23.7867 26.2 25.3334 24 25.3334H8.00001C5.80001 25.3334 4.92001 23.7867 6.05334 21.9067L13.9333 8.77339C14.5067 7.81339 15.2533 7.34672 16 7.34672ZM16 4.68005C14.2667 4.68005 12.6933 5.66672 11.6533 7.38672L3.77334 20.5334C3.18667 21.5201 2.89334 22.5334 2.89334 23.5067C2.89334 24.2534 3.08001 24.9867 3.45334 25.6401C4.30667 27.1334 5.96001 28.0001 8.00001 28.0001H24C26.04 28.0001 27.6933 27.1334 28.5467 25.6401C28.9333 24.9601 29.12 24.2134 29.1067 23.4401C29.0933 22.4934 28.8 21.4934 28.2267 20.5334L20.3467 7.40005C19.3067 5.66672 17.7333 4.68005 16 4.68005ZM18 22.3334C18 22.3334 17.0533 22.8134 16.5733 22.5734C16.0933 22.3334 16 21.8534 16.2667 21.0401L16.8133 19.4134C17.3467 17.7867 16.6533 16.6401 15.3733 16.5734C13.6933 16.4801 12.68 17.6801 12.68 17.6801C12.68 17.6801 13.6267 17.2001 14.1067 17.4401C14.5867 17.6801 14.68 18.1601 14.4133 18.9734L13.8667 20.6001C13.3333 22.2267 14.0267 23.3601 15.3067 23.4401C16.9867 23.5201 18 22.3334 18 22.3334Z" fill="black"/>
<path d="M16 15.0666C16.9573 15.0666 17.7333 14.2906 17.7333 13.3333C17.7333 12.376 16.9573 11.6 16 11.6C15.0427 11.6 14.2667 12.376 14.2667 13.3333C14.2667 14.2906 15.0427 15.0666 16 15.0666Z" fill="black"/>
</svg>
