<svg width="29" height="29" viewBox="0 0 29 29" fill="none" xmlns="http://www.w3.org/2000/svg">
<path d="M14.5 6.65788C15.1767 6.65788 15.8533 7.08079 16.3608 7.93871L23.5021 19.8408C24.5412 21.5566 23.7437 22.9583 21.75 22.9583H7.24999C5.25624 22.9583 4.45874 21.5566 5.48582 19.8529L12.6271 7.95079C13.1467 7.08079 13.8233 6.65788 14.5 6.65788ZM14.5 4.24121C12.9292 4.24121 11.5033 5.13538 10.5608 6.69413L3.41957 18.6083C2.8879 19.5025 2.62207 20.4208 2.62207 21.3029C2.62207 21.9795 2.79124 22.6441 3.12957 23.2362C3.9029 24.5895 5.40124 25.375 7.24999 25.375H21.75C23.5987 25.375 25.0971 24.5895 25.8704 23.2362C26.2208 22.62 26.39 21.9433 26.3779 21.2425C26.3658 20.3845 26.1 19.4783 25.5804 18.6083L18.4392 6.70621C17.4967 5.13538 16.0708 4.24121 14.5 4.24121ZM16.3125 20.2395C16.3125 20.2395 15.4546 20.6745 15.0196 20.457C14.5846 20.2395 14.5 19.8045 14.7417 19.0675L15.2371 17.5933C15.7204 16.1191 15.0921 15.08 13.9321 15.0195C12.4096 14.935 11.4912 16.0225 11.4912 16.0225C11.4912 16.0225 12.3492 15.5875 12.7842 15.805C13.2192 16.0225 13.3037 16.4575 13.0621 17.1945L12.5667 18.6687C12.0833 20.1429 12.7117 21.17 13.8717 21.2425C15.3942 21.315 16.3125 20.2395 16.3125 20.2395Z" fill="black"/>
<path d="M14.5 13.6541C15.3675 13.6541 16.0708 12.9508 16.0708 12.0833C16.0708 11.2157 15.3675 10.5125 14.5 10.5125C13.6325 10.5125 12.9292 11.2157 12.9292 12.0833C12.9292 12.9508 13.6325 13.6541 14.5 13.6541Z" fill="black"/>
</svg>
